HIERARCHY
ROOT Hips
{
	OFFSET 0.00000 0.00000 0.00000
	CHANNELS 6 Xposition Yposition Zposition Yrotation Zrotation Xrotation 
	JOINT Lumbar
	{
		OFFSET 0 0 0
		CHANNELS 3 Zrotation Xrotation Yrotation
		JOINT Neck
		{
			OFFSET 0.00 0.2701 0.00
			CHANNELS 3 Zrotation Xrotation Yrotation
			End Site
			{
				OFFSET 0.00 0.1379 0.00
			}
		}
		JOINT RightShoulder
		{
			OFFSET 0.0119 0.2289 0.1181
			CHANNELS 3 Zrotation Xrotation Yrotation
			JOINT RightElbow
			{
				OFFSET 0.00 -0.1475 0.00
				CHANNELS 2 Zrotation Yrotation
				JOINT RightWrist
				{
					OFFSET 0.00 -0.1605 0.00
					CHANNELS 2 Zrotation Xrotation
					End Site
					{
						OFFSET 0.0040 -0.1068 0.0006
					}
				}
			}
		}
		JOINT LeftShoulder
		{
			OFFSET 0.0119 0.2289 -0.1181
			CHANNELS 3 Zrotation Xrotation Yrotation
			JOINT LeftElbow
			{
				OFFSET 0.00 -0.1475 0.00
				CHANNELS 2 Zrotation Yrotation
				JOINT LeftWrist
				{
					OFFSET 0.00 -0.1605 0.00
					CHANNELS 2 Zrotation Xrotation
					End Site
					{
						OFFSET 0.0040 -0.1068 -0.0006
					}
				}
			}
		}
	}
	JOINT RightHip
	{
		OFFSET 0.0316 -0.0424 0.0458
		CHANNELS 3 Zrotation Xrotation Yrotation
		JOINT RightKnee
		{
			OFFSET 0.00 -0.2438 0.00
			CHANNELS 1 Zrotation
			JOINT RightAnkle
			{
				OFFSET 0.00 -0.2449 0.00
				CHANNELS 3 Zrotation Xrotation Yrotation
				End Site
				{
					OFFSET 0.1237 -0.0542 0.0051
				}
			}
		}
	}
	JOINT LeftHip
	{
		OFFSET 0.0316 -0.0424 -0.0458
		CHANNELS 3 Zrotation Xrotation Yrotation
		JOINT LeftKnee
		{
			OFFSET 0.00 -0.2438 0.00
			CHANNELS 1 Zrotation
			JOINT LeftAnkle
			{
				OFFSET 0.00 -0.2449 0.00
				CHANNELS 3 Zrotation Xrotation Yrotation
				End Site
				{
					OFFSET 0.1237 -0.0542 -0.0051
				}
			}
		}
	}
}
MOTION
Frames: 11
Frame Time: 0.02
-9e-05 -1e-05 3e-05 21.96663 -29.67903 -7.26517 49.90931 2.7578 -2.43887 -21.78658 -1.46569 -0.41321 39.90821 -107.6782 64.16471 13.56252 84.36607 3.71129 -1.92936 26.76521 106.7042 -64.16883 7.91196 -88.74804 6.95613 1.07146 44.1289 -5.78836 -3.75792 -21.85855 -6.96008 -3.816 -2.66073 48.37043 11.11808 -0.50716 -27.05748 -6.89256 3.08229 2.26199
-9e-05 -1e-05 3e-05 21.96153 -29.68162 -7.26676 49.9135 2.75997 -2.43766 -21.76945 -1.46406 -0.41353 39.96516 -107.64843 64.16535 13.54136 84.36697 3.72316 -1.91858 26.73537 106.68211 -64.16905 7.91072 -88.73302 6.9516 1.07077 44.13339 -5.77755 -3.70281 -21.85742 -6.96077 -3.81788 -2.66203 48.37235 11.10673 -0.55737 -27.05726 -6.89432 3.09271 2.26815
-9e-05 -1e-05 2e-05 21.95646 -29.68419 -7.26835 49.91768 2.76215 -2.43648 -21.75237 -1.46243 -0.41385 40.02199 -107.61872 64.16599 13.5203 84.36788 3.73495 -1.90781 26.70561 106.66006 -64.16926 7.90949 -88.71802 6.94708 1.07007 44.13786 -5.76677 -3.6478 -21.8563 -6.96146 -3.81975 -2.66333 48.37424 11.0954 -0.60745 -27.05705 -6.89607 3.10311 2.27429
-9e-05 -1e-05 2e-05 21.95138 -29.68676 -7.26994 49.92185 2.76432 -2.43528 -21.73529 -1.46081 -0.41417 40.07879 -107.58903 64.16664 13.49921 84.36877 3.74678 -1.89706 26.67586 106.63803 -64.16948 7.90825 -88.70305 6.94256 1.06939 44.14233 -5.756 -3.59284 -21.85518 -6.96214 -3.82163 -2.66462 48.37614 11.08407 -0.65751 -27.05684 -6.89782 3.1135 2.28043
-9e-05 -2e-05 1e-05 21.94628 -29.68936 -7.27153 49.92605 2.76649 -2.43405 -21.71815 -1.45919 -0.41449 40.13568 -107.55932 64.16728 13.478 84.36967 3.75869 -1.88631 26.64603 106.61598 -64.1697 7.907 -88.68806 6.93805 1.06873 44.14683 -5.74521 -3.53782 -21.85406 -6.96283 -3.8235 -2.66592 48.37807 11.07272 -0.70768 -27.05662 -6.89958 3.12392 2.28659
-0.0001 -2e-05 1e-05 21.94126 -29.69187 -7.27311 49.93019 2.76866 -2.43296 -21.70119 -1.45753 -0.41481 40.19236 -107.52961 64.16792 13.45726 84.37058 3.77024 -1.87549 26.61643 106.59393 -64.16991 7.90581 -88.67304 6.93351 1.06794 44.15121 -5.73444 -3.48284 -21.85294 -6.96352 -3.82538 -2.66722 48.37991 11.06143 -0.7576 -27.05643 -6.90133 3.1343 2.2927
-0.0001 -2e-05 1e-05 21.93609 -29.69456 -7.27471 49.93444 2.77084 -2.4316 -21.6839 -1.45596 -0.41513 40.24945 -107.49991 64.16857 13.4356 84.37147 3.78248 -1.86481 26.58639 106.57191 -64.17013 7.90449 -88.65809 6.92902 1.06742 44.15584 -5.72365 -3.42782 -21.85181 -6.9642 -3.82724 -2.6685 48.38191 11.05005 -0.80793 -27.05619 -6.90309 3.14473 2.29889
-0.0001 -2e-05 0 21.93105 -29.69709 -7.27629 49.93858 2.77302 -2.43048 -21.66691 -1.45431 -0.41545 40.30607 -107.47024 64.16921 13.41477 84.37237 3.79411 -1.85404 26.55679 106.54987 -64.17035 7.90329 -88.64309 6.92449 1.06665 44.16024 -5.71289 -3.37286 -21.8507 -6.96489 -3.82913 -2.66981 48.38377 11.03873 -0.85794 -27.05599 -6.90484 3.15511 2.30501
-0.0001 -3e-05 -0 21.9262 -29.69938 -7.27787 49.94259 2.77517 -2.42967 -21.6503 -1.45252 -0.41576 40.36253 -107.44043 64.16984 13.39503 84.37331 3.80492 -1.84301 26.52757 106.52774 -64.17056 7.90226 -88.62799 6.91987 1.06554 44.16435 -5.7021 -3.31784 -21.8496 -6.96558 -3.83101 -2.67111 48.38543 11.02756 -0.90736 -27.05584 -6.90656 3.16544 2.31103
-0.0001 -3e-05 -0 21.92034 -29.70291 -7.27952 49.94738 2.77739 -2.42715 -21.63155 -1.45145 -0.41611 40.42115 -107.41087 64.17055 13.36926 84.37409 3.82024 -1.83302 26.49566 106.50592 -64.1708 7.90031 -88.61332 6.91567 1.06629 44.17007 -5.69128 -3.26276 -21.84838 -6.96623 -3.83282 -2.67235 48.38816 11.01575 -0.9596 -27.05541 -6.90841 3.17609 2.3176
-0.0001 -3e-05 -1e-05 21.91658 -29.7039 -7.28098 49.95053 2.7795 -2.42817 -21.61727 -1.44891 -0.41638 40.47442 -107.38117 64.17108 13.35604 84.37519 3.82619 -1.82111 26.46975 106.48357 -64.17098 7.90027 -88.59785 6.91066 1.0632 44.17247 -5.68063 -3.20807 -21.84744 -6.96699 -3.83484 -2.67375 48.38867 11.00515 -1.00623 -27.05555 -6.91001 3.18607 2.32303
